<svg xmlns="http://www.w3.org/2000/svg" viewBox="0 0 20 34">
  <defs><linearGradient id="g" x1="20.3249" y1="-0.855699" x2="-1.01625" y2="21.0783" gradientUnits="userSpaceOnUse"><stop stop-color="#9775FF"/><stop offset="1" stop-color="#6675FF"/></linearGradient></defs>
  <path d="M19.0266 1.84875C17.1978 0.999423 17.1978 0.999423 14.5484 3.65934C14.4038 3.80462 14.2588 3.94954 14.1135 4.09413C13.7157 4.48905 13.3188 4.88469 12.9228 5.28133C12.5869 5.61781 12.2507 5.95398 11.9142 6.28977C11.1215 7.08066 10.3293 7.87206 9.53815 8.66457C8.71761 9.48664 7.89621 10.3078 7.07317 11.1274C6.36003 11.8375 5.64752 12.5482 4.93607 13.26C4.5125 13.6841 4.08912 14.1083 3.66441 14.5312C3.25937 14.9341 2.8547 15.3373 2.45165 15.7422C2.30272 15.892 2.1537 16.0418 2.00456 16.1914C1.42236 16.7681 0.801969 17.3261 0.355272 18.0173C-0.0431583 18.7922 -0.0816878 19.4336 0.117046 20.2682C0.45644 20.8545 0.78579 21.323 1.38313 21.6681C2.59883 22.1782 4.0954 22.2627 5.33352 21.7717C6.51496 22.8591 5.30256 25.5392 5.10391 28.2918C5.05012 29.6991 4.91719 30.9803 5.91653 32.0796C6.69161 32.6968 7.5772 32.7102 8.53038 32.6023C9.54991 32.2753 10.1483 31.4749 10.6463 30.57C11.3106 29.3423 11.9907 28.1551 13.0398 27.2108C13.9818 26.5046 15.0509 26.0731 16.2412 26.1984C17.5483 26.4379 18.5319 26.9187 19.3534 27.9791C19.665 28.4177 20.2944 28.1673 20.2953 27.6293L20.3241 4.79185C20.3285 4.24674 20.3003 3.75109 20.1733 3.21678C19.9464 2.55776 19.6266 2.1899 19.0266 1.84875Z" fill="url(#g)"/>
  <path d="M17.7133 22.2283C14.9971 20.2472 11.6582 19.7663 8.36647 20.2281C8.06951 20.3457 8.06951 20.3457 7.68452 20.9854C6.30746 23.3885 5.28504 25.8344 5.10771 28.2915C5.05392 29.6989 4.92099 30.98 5.92033 32.0793C6.69541 32.6965 7.581 32.7099 8.53418 32.6021C9.55371 32.2751 10.1521 31.4746 10.6501 30.5698C11.3144 29.3421 11.9945 28.1548 13.0436 27.2105C13.9856 26.5043 15.0547 26.0728 16.245 26.1981C17.5521 26.4376 18.5357 26.9184 19.3572 27.9788C19.6711 28.4207 20.3056 28.1711 20.3089 27.6291L20.322 25.7422C19.6334 23.7658 18.6599 22.9499 17.7133 22.2283Z" fill="#29DCA4"/>
  <path d="M20.2882 11.9528C16.6901 11.9528 12.7287 15.3081 10.4209 17.7552C10.3542 17.8264 10.2895 17.8955 10.2248 17.9647C9.51826 18.7159 8.87659 19.4879 8.26445 20.3171C8.77241 20.3062 9.2803 20.2973 9.78835 20.2916C9.99919 20.2895 10.21 20.2871 10.4209 20.2845C11.0277 20.271 11.6337 20.2602 12.2407 20.2753C14.9905 20.411 17.5163 21.8672 19.3779 23.832C19.6347 24.1072 19.6347 24.1072 20.2882 24.7607C20.2882 20.406 20.2882 16.1794 20.2882 11.9528Z" fill="#3B75FD"/>
</svg>
